<?xml version="1.0" encoding="UTF-8" standalone="no"?>
<svg width="790px" height="140px" viewBox="0 0 790 140" version="1.1" xmlns="http://www.w3.org/2000/svg" xmlns:xlink="http://www.w3.org/1999/xlink" xmlns:sketch="http://www.bohemiancoding.com/sketch/ns">
    <!-- Generator: Sketch 3.3.3 (12072) - http://www.bohemiancoding.com/sketch -->
    <title>Group</title>
    <desc>Created with Sketch.</desc>
    <defs></defs>
    <g id="Page-1" stroke="none" stroke-width="1" fill="none" fill-rule="evenodd" sketch:type="MSPage">
        <g id="Group" sketch:type="MSLayerGroup" fill="#FFFFFF">
            <path d="M197.421,68.325 L197.421,89.763 L214.086,89.763 C223.397,89.763 230.529,87.861 230.529,79.154 C230.529,68.991 221.675,68.325 209.56,68.325 L197.421,68.325 L197.421,68.325 Z M197.421,27.867 L197.421,47.235 L213.27,47.235 C220.86,47.235 226.326,43.814 226.326,37.064 C226.326,28.074 218.872,27.867 210.801,27.867 L197.421,27.867 L197.421,27.867 Z M159.409,116.871 L159.409,0.797 L214.891,0.797 C240.933,0.797 261.79,6.985 261.79,30.015 C261.79,41.935 254.036,50.604 246.647,55.3 C259.23,58.551 265.967,69.341 265.967,81.894 C265.967,107.893 246.166,116.872 216.008,116.872 L159.409,116.872 L159.409,116.871 Z" id="Shape" sketch:type="MSShapeGroup"></path>
            <path d="M314.135,50.94 L329.121,50.94 C340.891,50.94 347.199,48.071 347.199,39.955 C347.199,31.79 340.767,27.867 331.893,27.867 L314.134,27.867 L314.134,50.94 L314.135,50.94 Z M314.135,76.413 L314.135,116.871 L276.123,116.871 L276.123,0.798 L330.968,0.798 C369.592,0.798 382.35,11.279 382.35,33.862 C382.35,47.237 376.37,58.551 362.791,62.242 C375.083,66.703 382.535,69.664 382.535,93.027 C382.535,108.188 382.033,113.36 386.514,113.36 L386.514,116.871 L348.022,116.871 C347.03,114.312 346.079,106.906 346.079,96.538 C346.079,81.404 343.507,76.413 325.767,76.413 L314.135,76.413 L314.135,76.413 Z" id="Shape" sketch:type="MSShapeGroup"></path>
            <path d="M446.023,35.79 L422.606,116.871 L385.424,116.871 L426.99,0.798 L465.686,0.798 L507.298,116.871 L469.408,116.871 L446.023,35.79 Z" id="Shape" sketch:type="MSShapeGroup"></path>
            <rect id="Rectangle-path" sketch:type="MSShapeGroup" x="515.278" y="0.798" width="38.078" height="116.073"></rect>
            <path d="M642.685,64.145 L641.265,37.707 L641.265,0.799 L677.669,0.799 L677.669,116.868 L642.062,116.868 L600.628,53.651 L602.036,80.155 L602.036,116.868 L565.644,116.868 L565.644,0.799 L601.25,0.799 L642.685,64.145 Z" id="Shape" sketch:type="MSShapeGroup"></path>
            <path d="M751.875,35.585 C751.304,31.663 749.271,29.321 746.59,27.922 C743.962,26.504 740.688,25.915 737.088,25.915 C729.006,25.915 725.418,28.24 725.418,32.243 C725.418,49.153 789.98,38.644 789.98,79.541 C789.98,105.568 768.304,118.195 737.389,118.195 C707.793,118.195 688.448,100.86 687.688,80.604 L722.904,80.604 C723.688,84.671 725.867,87.642 729.007,89.505 C731.939,91.394 735.861,92.346 739.449,92.346 C748.669,92.346 754.737,89.364 754.737,84.054 C754.737,67.064 690.157,78.731 690.157,35.894 C690.157,12.039 710.764,0.043 738.812,0.043 C769.995,0.043 784.225,15.886 786.848,35.585 L751.875,35.585 L751.875,35.585 Z" id="Shape" sketch:type="MSShapeGroup"></path>
            <path d="M0.021,139.745 C3.52,130.811 9.176,122.824 16.733,115.029 C45.434,85.105 90.545,73.302 90.545,44.805 C90.545,33.812 80.116,27.508 69.849,27.508 C50.398,27.508 44.72,43.852 44.947,60.468 L0.022,60.468 L0.022,139.745 L0.021,139.745 Z" id="Shape" sketch:type="MSShapeGroup"></path>
            <path d="M140.967,47.942 C139.488,75.939 117.369,88.17 95.709,101.616 C86.759,107.262 77.512,112.213 69.625,116.909 L140.967,116.909 L140.967,47.942 L140.967,47.942 Z" id="Shape" sketch:type="MSShapeGroup"></path>
            <path d="M140.967,39.853 L140.967,0.799 L117.752,0.799 C130.627,8.835 139.535,21.516 140.967,39.853" id="Shape" sketch:type="MSShapeGroup"></path>
            <path d="M26.268,0.798 L0.021,0.798 L0.021,49.795 C2.412,26.208 11.582,10.313 26.268,0.798" id="Shape" sketch:type="MSShapeGroup"></path>
        </g>
    </g>
</svg>