<?xml version="1.0" encoding="utf-8"?>
<!-- Generator: Adobe Illustrator 16.0.0, SVG Export Plug-In . SVG Version: 6.00 Build 0)  -->
<!DOCTYPE svg PUBLIC "-//W3C//DTD SVG 1.1//EN" "http://www.w3.org/Graphics/SVG/1.1/DTD/svg11.dtd">
<svg version="1.1" id="Modo_de_aislamiento" xmlns="http://www.w3.org/2000/svg" xmlns:xlink="http://www.w3.org/1999/xlink"
	 x="0px" y="0px" width="1008px" height="651.575px" viewBox="0 0 1008 651.575" enable-background="new 0 0 1008 651.575"
	 xml:space="preserve">
<rect width="1008" height="325.788"/>
<g>
	<path fill="#FFFFFF" d="M306.421,161.325v21.438h16.665c9.311,0,16.443-1.902,16.443-10.609c0-10.163-8.854-10.829-20.969-10.829
		H306.421z M306.421,120.867v19.368h15.849c7.59,0,13.056-3.421,13.056-10.171c0-8.99-7.454-9.197-15.525-9.197H306.421z
		 M268.409,209.871V93.797h55.482c26.042,0,46.899,6.188,46.899,29.218c0,11.92-7.754,20.589-15.143,25.285
		c12.583,3.251,19.32,14.041,19.32,26.594c0,25.999-19.801,34.978-49.959,34.978H268.409z"/>
	<path fill="#FFFFFF" d="M423.135,143.94h14.986c11.77,0,18.078-2.869,18.078-10.985c0-8.165-6.432-12.088-15.306-12.088h-17.759
		V143.94z M423.135,169.413v40.458h-38.012V93.798h54.845c38.624,0,51.382,10.481,51.382,33.064c0,13.375-5.98,24.689-19.559,28.38
		c12.292,4.461,19.744,7.422,19.744,30.785c0,15.161-0.502,20.333,3.979,20.333v3.511h-38.492
		c-0.992-2.559-1.943-9.965-1.943-20.333c0-15.134-2.572-20.125-20.312-20.125H423.135z"/>
	<polygon fill="#FFFFFF" points="555.023,128.79 531.606,209.871 494.424,209.871 535.99,93.798 574.686,93.798 616.298,209.871 
		578.408,209.871 	"/>
	<rect x="624.278" y="93.798" fill="#FFFFFF" width="38.078" height="116.073"/>
	<polygon fill="#FFFFFF" points="751.685,157.145 750.265,130.707 750.265,93.799 786.669,93.799 786.669,209.868 751.062,209.868 
		709.628,146.651 711.036,173.155 711.036,209.868 674.644,209.868 674.644,93.799 710.25,93.799 	"/>
	<path fill="#FFFFFF" d="M860.875,128.585c-0.571-3.922-2.604-6.264-5.285-7.663c-2.628-1.418-5.902-2.007-9.502-2.007
		c-8.082,0-11.67,2.325-11.67,6.328c0,16.91,64.562,6.401,64.562,47.298c0,26.027-21.676,38.654-52.591,38.654
		c-29.596,0-48.941-17.335-49.701-37.591h35.216c0.784,4.067,2.963,7.038,6.103,8.901c2.932,1.889,6.854,2.841,10.442,2.841
		c9.22,0,15.288-2.982,15.288-8.292c0-16.99-64.58-5.323-64.58-48.16c0-23.855,20.607-35.851,48.655-35.851
		c31.183,0,45.413,15.843,48.036,35.542H860.875z"/>
	<path fill="#FFFFFF" d="M109.021,232.745c3.499-8.934,9.155-16.921,16.712-24.716c28.701-29.924,73.812-41.727,73.812-70.224
		c0-10.993-10.429-17.297-20.696-17.297c-19.451,0-25.129,16.344-24.902,32.96h-44.925V232.745z"/>
	<path fill="#FFFFFF" d="M249.967,140.942c-1.479,27.997-23.598,40.228-45.258,53.674c-8.95,5.646-18.197,10.597-26.084,15.293
		h71.342V140.942z"/>
	<path fill="#FFFFFF" d="M249.967,132.853V93.799h-23.215C239.627,101.835,248.535,114.516,249.967,132.853"/>
	<path fill="#FFFFFF" d="M135.268,93.798h-26.247v48.997C111.412,119.208,120.582,103.313,135.268,93.798"/>
</g>
<rect y="325.788" fill="#FFFFFF" width="1008" height="325.788"/>
<g>
	<path d="M306.421,487.112v21.439h16.665c9.311,0,16.443-1.902,16.443-10.609c0-10.163-8.854-10.83-20.969-10.83H306.421z
		 M306.421,446.655v19.367h15.849c7.59,0,13.056-3.42,13.056-10.17c0-8.99-7.454-9.197-15.525-9.197H306.421z M268.409,535.659
		V419.585h55.482c26.042,0,46.899,6.188,46.899,29.217c0,11.92-7.754,20.59-15.143,25.285c12.583,3.252,19.32,14.041,19.32,26.594
		c0,26-19.801,34.979-49.959,34.979H268.409z"/>
	<path d="M423.135,469.728h14.986c11.77,0,18.078-2.869,18.078-10.984c0-8.166-6.432-12.088-15.306-12.088h-17.759V469.728z
		 M423.135,495.2v40.459h-38.012V419.586h54.845c38.624,0,51.382,10.481,51.382,33.063c0,13.375-5.98,24.689-19.559,28.381
		c12.292,4.461,19.744,7.422,19.744,30.785c0,15.16-0.502,20.332,3.979,20.332v3.512h-38.492c-0.992-2.559-1.943-9.965-1.943-20.334
		c0-15.133-2.572-20.125-20.312-20.125H423.135z"/>
	<polygon points="555.023,454.577 531.606,535.659 494.424,535.659 535.99,419.586 574.686,419.586 616.298,535.659 
		578.408,535.659 	"/>
	<rect x="624.278" y="419.586" width="38.078" height="116.073"/>
	<polygon points="751.685,482.933 750.265,456.495 750.265,419.587 786.669,419.587 786.669,535.655 751.062,535.655 
		709.628,472.438 711.036,498.942 711.036,535.655 674.644,535.655 674.644,419.587 710.25,419.587 	"/>
	<path d="M860.875,454.372c-0.571-3.922-2.604-6.264-5.285-7.662c-2.628-1.418-5.902-2.008-9.502-2.008
		c-8.082,0-11.67,2.325-11.67,6.328c0,16.91,64.562,6.4,64.562,47.297c0,26.027-21.676,38.654-52.591,38.654
		c-29.596,0-48.941-17.334-49.701-37.59h35.216c0.784,4.066,2.963,7.037,6.103,8.9c2.932,1.889,6.854,2.842,10.442,2.842
		c9.22,0,15.288-2.982,15.288-8.293c0-16.989-64.58-5.322-64.58-48.16c0-23.854,20.607-35.851,48.655-35.851
		c31.183,0,45.413,15.843,48.036,35.542H860.875z"/>
	<path d="M109.021,558.532c3.499-8.934,9.155-16.92,16.712-24.715c28.701-29.924,73.812-41.727,73.812-70.225
		c0-10.993-10.429-17.297-20.696-17.297c-19.451,0-25.129,16.344-24.902,32.961h-44.925V558.532z"/>
	<path d="M249.967,466.729c-1.479,27.996-23.598,40.229-45.258,53.674c-8.95,5.646-18.197,10.598-26.084,15.293h71.342V466.729z"/>
	<path d="M249.967,458.64v-39.053h-23.215C239.627,427.623,248.535,440.304,249.967,458.64"/>
	<path d="M135.268,419.586h-26.247v48.997C111.412,444.996,120.582,429.101,135.268,419.586"/>
</g>
</svg>
